<svg xmlns="http://www.w3.org/2000/svg" width="100" height="100" viewBox="0 0 100 100" fill="none">
  <title>Burger Lab mark — solid gold (for dark backgrounds)</title>
  <circle cx="52.5" cy="16" r="3" fill="#E5A52B"></circle>
  <circle cx="46" cy="8" r="2.1" fill="#E5A52B"></circle>
  <rect x="38" y="26.5" width="24" height="5" rx="2.5" fill="#E5A52B"></rect>
  <path d="M43 31.5 L43 39.5 A26 26 0 1 0 57 39.5 L57 31.5" stroke="#E5A52B" stroke-width="3.4" stroke-linejoin="round" stroke-linecap="round"></path>
  <path d="M32 61 Q50 47 68 61 Z" fill="#E5A52B"></path>
  <circle cx="44" cy="57.5" r="1.4" fill="#0E0C09"></circle>
  <circle cx="51" cy="55" r="1.4" fill="#0E0C09"></circle>
  <circle cx="58" cy="57.5" r="1.4" fill="#0E0C09"></circle>
  <path d="M32 62 Q37 66 42 62 Q47 66 52 62 Q57 66 62 62 Q66 65 68 62 L68 64 L32 64 Z" fill="#E5A52B"></path>
  <rect x="32" y="66" width="36" height="7.5" rx="3.75" fill="#E5A52B"></rect>
  <path d="M32 76 Q50 88 68 76 Q60 78 50 78 Q40 78 32 76 Z" fill="#E5A52B"></path>
</svg>