<svg enable-background="new 0 0 120 134.8" viewBox="0 0 120 134.8" xmlns="http://www.w3.org/2000/svg"><path d="m120 89.4c0 4.4-3 10-6.7 12.4l-46.7 31.1c-3.7 2.4-9.7 2.4-13.3 0l-46.7-31.1c-3.7-2.4-6.7-8-6.7-12.4v-44c0-4.4 3-10 6.7-12.4l46.7-31.2c3.7-2.4 9.7-2.4 13.3 0l46.7 31.2c3.7 2.4 6.7 8 6.7 12.4z" fill="#42bfbf"/><path d="m0 57.4h120m-45 68v-115" fill="#ff6f12" stroke="#fff" stroke-miterlimit="10" stroke-width="10"/><path d="m55.9 84.6h-.3c-.4-.1-.6-.4-.7-.8l-1.2-6.6-6.8-.2c-.4 0-.8-.3-.9-.6s-.1-.8.2-1.1l20.8-20.4c.2-.2.4-.3.7-.3.2 0 .5.1.7.2l7.2 6.3c.4.4.5 1 .1 1.4l-19 21.6c-.2.3-.5.5-.8.5z" fill="#fff"/><path d="m67.8 55.6 7.2 6.3-19 21.6-1.3-7.4-7.7-.2zm0-2c-.5 0-1 .2-1.4.6l-20.8 20.4c-.6.6-.8 1.4-.5 2.2.3.7 1 1.2 1.8 1.3l6 .1 1 5.8c.1.8.7 1.4 1.4 1.6.2.1.4.1.5.1.6 0 1.1-.2 1.5-.7l19-21.6c.7-.8.6-2.1-.2-2.8l-7.2-6.3c-.2-.6-.7-.7-1.1-.7z" fill="#42bfbf"/><path d="m94 84.6c-.3 0-.6-.1-.8-.3l-19-21.6c-.4-.4-.3-1 .1-1.4l7.2-6.3c.2-.2.4-.2.7-.2s.5.1.7.3l20.8 20.4c.3.3.4.7.2 1.1s-.5.6-.9.6l-6.8.2-1.2 6.6c-.1.4-.3.7-.7.8 0-.3-.3-.2-.3-.2z" fill="#fff"/><path d="m82.2 55.6 20.8 20.4-7.7.2-1.3 7.4-19-21.6zm0-2c-.5 0-.9.2-1.3.5l-7.2 6.3c-.8.7-.9 2-.2 2.8l19 21.6c.4.4.9.7 1.5.7.2 0 .4 0 .5-.1.7-.2 1.3-.8 1.4-1.6l1-5.8 6-.1c.8 0 1.5-.5 1.8-1.3.3-.7.1-1.6-.5-2.2l-20.8-20.4c-.2-.2-.7-.4-1.2-.4z" fill="#42bfbf"/><path d="m99 70.2c-.5 0-1-.1-1.4-.3l-13.5-5.2c-1.5-.6-2.6-2.1-2.6-3.7v-7.7c0-1.8 1.1-3.3 2.8-3.8l13.5-4.2c.4-.1.8-.2 1.2-.2 2.2 0 4 1.8 4 4v17.1c0 2.2-1.8 4-4 4z" fill="#fff"/><path d="m99 46.1c1.6 0 3 1.3 3 3v17.1c0 1.7-1.4 3-3 3-.4 0-.7-.1-1.1-.2l-13.5-5.2c-1.2-.4-1.9-1.6-1.9-2.8v-7.7c0-1.3.9-2.5 2.1-2.9l13.5-4.2c.3 0 .6-.1.9-.1m0-2c-.5 0-1 .1-1.5.2l-13.5 4.2c-2.1.7-3.5 2.6-3.5 4.8v7.7c0 2.1 1.3 3.9 3.2 4.7l13.5 5.2c.6.2 1.2.3 1.8.3 2.8 0 5-2.2 5-5v-17.1c0-2.7-2.2-5-5-5z" fill="#42bfbf"/><path d="m51 69c-2.2 0-4-1.8-4-4v-17.1c0-2.2 1.8-4 4-4 .5 0 1 .1 1.4.3l13.5 5.2c1.5.6 2.6 2.1 2.6 3.7v7.7c0 1.8-1.1 3.3-2.8 3.8l-13.5 4.2c-.4.1-.8.2-1.2.2z" fill="#fff"/><path d="m51 44.9c.4 0 .7.1 1.1.2l13.5 5.2c1.2.4 1.9 1.6 1.9 2.8v7.7c0 1.3-.9 2.5-2.1 2.9l-13.5 4.2c-.3.1-.6.1-.9.1-1.6 0-3-1.3-3-3v-17.1c0-1.7 1.4-3 3-3m0-2c-2.8 0-5 2.2-5 5v17.1c0 2.8 2.2 5 5 5 .5 0 1-.1 1.5-.2l13.5-4.2c2.1-.7 3.5-2.6 3.5-4.8v-7.7c0-2.1-1.3-3.9-3.2-4.7l-13.5-5.2c-.6-.2-1.2-.3-1.8-.3z" fill="#42bfbf"/><path d="m71 65.6c-1.7 0-3-1.3-3-3v-11c0-1.7 1.3-3 3-3h8c1.7 0 3 1.3 3 3v11c0 1.7-1.3 3-3 3z" fill="#fff"/><path d="m79 49.6c1.1 0 2 .9 2 2v11c0 1.1-.9 2-2 2h-8c-1.1 0-2-.9-2-2v-11c0-1.1.9-2 2-2zm0-2h-8c-2.2 0-4 1.8-4 4v11c0 2.2 1.8 4 4 4h8c2.2 0 4-1.8 4-4v-11c0-2.2-1.8-4-4-4z" fill="#42bfbf"/><path d="m113.3 33-46.6-31.2c-1.8-1.2-4.2-1.8-6.7-1.8v134.8c2.4 0 4.8-.6 6.7-1.8l46.7-31.1c3.7-2.4 6.7-8 6.7-12.4v-44.1c-.1-4.4-3.1-10-6.8-12.4z" opacity=".08"/><path d="m60 4c1.7 0 3.3.4 4.4 1.2l46.7 31.1c2.6 1.7 4.9 6 4.9 9.1v44c0 3.1-2.3 7.4-4.9 9.1l-46.7 31.1c-1.1.7-2.7 1.2-4.4 1.2s-3.3-.4-4.4-1.2l-46.7-31.1c-2.6-1.7-4.9-6-4.9-9.1v-44c0-3.1 2.3-7.4 4.9-9.1l46.7-31.1c1.1-.8 2.7-1.2 4.4-1.2m0-4c-2.4 0-4.8.6-6.7 1.8l-46.7 31.1c-3.7 2.4-6.7 8-6.7 12.4v44c0 4.4 3 10 6.7 12.4l46.7 31.1c1.8 1.2 4.2 1.8 6.7 1.8s4.8-.6 6.7-1.8l46.7-31.1c3.7-2.4 6.7-8 6.7-12.4v-43.9c0-4.4-3-10-6.7-12.4l-46.7-31.2c-1.9-1.2-4.3-1.8-6.7-1.8z" fill="#42bfbf"/></svg>