<svg fill="none" height="560" viewBox="0 0 500 560" width="500" xmlns="http://www.w3.org/2000/svg"><path d="m499.6 370.8c0 18.2-13.3 41.5-29.9 51.4l-194 129.4c-14.9 10-39.8 10-54.7 0l-192.3996-129.4c-16.6-10-28.200009-33.2-28.200009-51.4v-182.5c0-18.2 11.600009-41.5 28.200009-51.4l194.0996-129.4c14.9-10 39.8-10 54.7 0l194.1 129.4c14.9 10 28.2 33.2 28.2 51.4v182.5z" fill="#99c267"/><path d="m454.5 410c15.4-9.1 27.6-30.3 27.6-47v-166.5c0-16.7-12.3-37.9-26.1-47l-179.6-118.0999c-7.1-4.6-16.5-6.9001-26-6.8001v510.4c8.9-.1 17.7-2.4 24.4-6.8z" fill="#80b341"/><g fill="#fff"><path d="m274.4 340.4h-23.9v-108.9h-.8l-31 19.8v-22l32.8-21.1h22.8v132.2z"/><path d="m309.3 208.2h50.6c28.7 0 42.8 14.6 42.8 34.3 0 16.1-10.2 25.1-23.1 28.1v1.3c14.1.7 28.3 12.5 28.3 32.5 0 20.6-14.8 36-45.1 36h-53.5zm47.6 56.2c12.5 0 21.9-7.2 21.9-18.8 0-10.2-7.3-17.6-21.4-17.6h-24.2v36.5h23.7zm2.1 56c17.4 0 24.6-7.4 24.6-17.9 0-11.8-9.2-20.8-23.9-20.8h-26.4v38.7z"/><path d="m158.665 350.56c3.669 0 6.643-2.974 6.643-6.643s-2.974-6.643-6.643-6.643c-3.668 0-6.643 2.974-6.643 6.643s2.975 6.643 6.643 6.643z"/><path d="m196.823 298.675-37.432 4.006c-.684.07-1.037-.795-.493-1.228l36.626-28.515c2.376-1.942 3.896-4.972 3.241-8.213-.644-4.972-4.76-8.213-9.944-7.568l-39.797 5.827c-.705.101-1.077-.795-.513-1.228l39.455-30.124c7.78-6.06 8.434-17.946 1.298-24.871-6.492-6.492-16.869-6.271-23.351.211l-63.571 64.658c-2.375 2.597-3.4621 6.059-2.8078 9.733 1.0768 5.838 6.9148 9.733 12.7628 8.646l34.271-6.985c.745-.151 1.147.835.503 1.248l-38.025 24.337c-4.761 3.03-6.915 8.434-5.405 13.839 1.509 7.137 8.646 11.243 15.57 9.512l56.838-14.001c.634-.161 1.107.584.694 1.098l-8.877 10.95c-2.376 3.03 1.509 7.136 4.76 4.761l29.189-24.005c5.194-4.328 1.731-12.763-4.972-12.108z"/></g></svg>